<svg xmlns="http://www.w3.org/2000/svg" xmlns:xlink="http://www.w3.org/1999/xlink" width="200" zoomAndPan="magnify" viewBox="0 0 150 149.999998" height="200" preserveAspectRatio="xMidYMid meet" version="1.0"><path stroke-linecap="butt" transform="matrix(0.75, 0, 0, 0.75, 2.24297, 4.281152)" fill="none" stroke-linejoin="miter" d="M 76.025003 20.104298 L 76.025003 43.692841 L 35.446876 43.692841 L 35.446876 67.104301 L 74.31667 67.104301 L 74.31667 90.687636 L 35.446876 90.687636 L 35.446876 114.416804 L 76.025003 114.416804 L 76.025003 138.000138 L 8.582291 138.000138 L 8.582291 20.104298 Z M 91.467712 20.104298 L 133.613548 20.104298 C 144.967715 20.104298 154.212508 23.13034 161.353133 29.177215 C 168.493758 35.224091 172.066675 43.864716 172.066675 55.099092 C 172.066675 63.776176 169.889592 71.04701 165.540633 76.906385 C 161.212508 82.770969 155.342716 86.885552 147.92084 89.260552 L 188.498968 138.000138 L 154.342716 138.000138 L 118.332297 91.422011 L 118.332297 138.000138 L 91.467712 138.000138 Z M 118.332297 72.406385 L 121.472922 72.406385 C 123.941672 72.406385 126.035423 72.35951 127.754173 72.26576 C 129.478131 72.17201 131.431256 71.849093 133.613548 71.291801 C 135.801048 70.708468 137.556257 69.895968 138.884382 68.849093 C 140.23334 67.776176 141.384382 66.244926 142.337507 64.239717 C 143.290632 62.239717 143.769799 59.823051 143.769799 56.984509 C 143.769799 54.125134 143.290632 51.692842 142.337507 49.692842 C 141.384382 47.692841 140.23334 46.1668 138.884382 45.119925 C 137.556257 44.078258 135.801048 43.26055 133.613548 42.682425 C 131.431256 42.099091 129.478131 41.760549 127.754173 41.666799 C 126.035423 41.573049 123.941672 41.526174 121.472922 41.526174 L 118.332297 41.526174 Z M 118.332297 72.406385 " stroke="#000000" stroke-width="1.697151" stroke-opacity="1" stroke-miterlimit="4"/><path stroke-linecap="butt" transform="matrix(0.75, 0, 0, 0.75, 7.94297, 9.081152)" fill="none" stroke-linejoin="miter" d="M 76.023962 20.10534 L 76.023962 43.693883 L 35.445834 43.693883 L 35.445834 67.105343 L 74.315628 67.105343 L 74.315628 90.688678 L 35.445834 90.688678 L 35.445834 114.412637 L 76.023962 114.412637 L 76.023962 138.00118 L 8.581249 138.00118 L 8.581249 20.10534 Z M 91.466671 20.10534 L 133.617715 20.10534 C 144.966674 20.10534 154.211466 23.131382 161.352092 29.178257 C 168.492717 35.225133 172.065634 43.865758 172.065634 55.100134 C 172.065634 63.777218 169.888551 71.048052 165.539592 76.907427 C 161.211467 82.766802 155.341675 86.886594 147.919799 89.256386 L 188.497927 138.00118 L 154.341675 138.00118 L 118.336464 91.423053 L 118.336464 138.00118 L 91.466671 138.00118 Z M 118.336464 72.407427 L 121.471881 72.407427 C 123.940631 72.407427 126.034381 72.360552 127.753131 72.266802 C 129.47709 72.173052 131.430215 71.850135 133.617715 71.287635 C 135.800007 70.70951 137.560424 69.89701 138.88334 68.850135 C 140.232299 67.777218 141.383341 66.24076 142.336466 64.240759 C 143.289591 62.240759 143.768757 59.824093 143.768757 56.985551 C 143.768757 54.126176 143.289591 51.693884 142.336466 49.693884 C 141.383341 47.693884 140.232299 46.167842 138.88334 45.120967 C 137.560424 44.074092 135.800007 43.261592 133.617715 42.678258 C 131.430215 42.100133 129.47709 41.761592 127.753131 41.667841 C 126.034381 41.574091 123.940631 41.527216 121.471881 41.527216 L 118.336464 41.527216 Z M 118.336464 72.407427 " stroke="#000000" stroke-width="1.697151" stroke-opacity="1" stroke-miterlimit="4"/></svg>